<mxfile host="Electron" agent="Mozilla/5.0 (Windows NT 10.0; Win64; x64) AppleWebKit/537.36 (KHTML, like Gecko) draw.io/24.7.8 Chrome/128.0.6613.36 Electron/32.0.1 Safari/537.36" version="24.7.8">
  <diagram name="Page-1" id="Hg2IT7PDrpcNc5EAWZc-">
    <mxGraphModel dx="2037" dy="825" grid="1" gridSize="10" guides="1" tooltips="1" connect="1" arrows="1" fold="1" page="1" pageScale="1" pageWidth="850" pageHeight="1100" math="0" shadow="0">
      <root>
        <mxCell id="0" />
        <mxCell id="1" parent="0" />
        <mxCell id="abGJqm0oXjYPMEmCcIpT-15" style="edgeStyle=orthogonalEdgeStyle;rounded=0;orthogonalLoop=1;jettySize=auto;html=1;entryX=0;entryY=0.5;entryDx=0;entryDy=0;" edge="1" parent="1">
          <mxGeometry relative="1" as="geometry">
            <mxPoint x="400" y="440" as="sourcePoint" />
            <mxPoint x="490" y="440" as="targetPoint" />
          </mxGeometry>
        </mxCell>
        <mxCell id="abGJqm0oXjYPMEmCcIpT-1" value="Book" style="swimlane;fontStyle=0;childLayout=stackLayout;horizontal=1;startSize=26;fillColor=none;horizontalStack=0;resizeParent=1;resizeParentMax=0;resizeLast=0;collapsible=1;marginBottom=0;whiteSpace=wrap;html=1;" vertex="1" parent="1">
          <mxGeometry x="260" y="410" width="140" height="130" as="geometry" />
        </mxCell>
        <mxCell id="abGJqm0oXjYPMEmCcIpT-2" value="+ id: int" style="text;strokeColor=none;fillColor=none;align=left;verticalAlign=top;spacingLeft=4;spacingRight=4;overflow=hidden;rotatable=0;points=[[0,0.5],[1,0.5]];portConstraint=eastwest;whiteSpace=wrap;html=1;" vertex="1" parent="abGJqm0oXjYPMEmCcIpT-1">
          <mxGeometry y="26" width="140" height="26" as="geometry" />
        </mxCell>
        <mxCell id="abGJqm0oXjYPMEmCcIpT-3" value="+ name: String" style="text;strokeColor=none;fillColor=none;align=left;verticalAlign=top;spacingLeft=4;spacingRight=4;overflow=hidden;rotatable=0;points=[[0,0.5],[1,0.5]];portConstraint=eastwest;whiteSpace=wrap;html=1;" vertex="1" parent="abGJqm0oXjYPMEmCcIpT-1">
          <mxGeometry y="52" width="140" height="26" as="geometry" />
        </mxCell>
        <mxCell id="abGJqm0oXjYPMEmCcIpT-4" value="+ author: String" style="text;strokeColor=none;fillColor=none;align=left;verticalAlign=top;spacingLeft=4;spacingRight=4;overflow=hidden;rotatable=0;points=[[0,0.5],[1,0.5]];portConstraint=eastwest;whiteSpace=wrap;html=1;" vertex="1" parent="abGJqm0oXjYPMEmCcIpT-1">
          <mxGeometry y="78" width="140" height="26" as="geometry" />
        </mxCell>
        <mxCell id="abGJqm0oXjYPMEmCcIpT-5" value="+ price: float" style="text;strokeColor=none;fillColor=none;align=left;verticalAlign=top;spacingLeft=4;spacingRight=4;overflow=hidden;rotatable=0;points=[[0,0.5],[1,0.5]];portConstraint=eastwest;whiteSpace=wrap;html=1;" vertex="1" parent="abGJqm0oXjYPMEmCcIpT-1">
          <mxGeometry y="104" width="140" height="26" as="geometry" />
        </mxCell>
        <mxCell id="abGJqm0oXjYPMEmCcIpT-14" style="edgeStyle=orthogonalEdgeStyle;rounded=0;orthogonalLoop=1;jettySize=auto;html=1;" edge="1" parent="1" source="abGJqm0oXjYPMEmCcIpT-6" target="abGJqm0oXjYPMEmCcIpT-7">
          <mxGeometry relative="1" as="geometry">
            <Array as="points">
              <mxPoint x="700" y="440" />
              <mxPoint x="700" y="440" />
            </Array>
          </mxGeometry>
        </mxCell>
        <mxCell id="abGJqm0oXjYPMEmCcIpT-17" style="edgeStyle=orthogonalEdgeStyle;rounded=0;orthogonalLoop=1;jettySize=auto;html=1;entryX=1;entryY=0.5;entryDx=0;entryDy=0;" edge="1" parent="1">
          <mxGeometry relative="1" as="geometry">
            <mxPoint x="490" y="499.9999999999998" as="sourcePoint" />
            <mxPoint x="400" y="499.9999999999998" as="targetPoint" />
          </mxGeometry>
        </mxCell>
        <mxCell id="abGJqm0oXjYPMEmCcIpT-6" value="Hibernate" style="rounded=0;whiteSpace=wrap;html=1;fillColor=#d5e8d4;strokeColor=#82b366;" vertex="1" parent="1">
          <mxGeometry x="490" y="420" width="160" height="110" as="geometry" />
        </mxCell>
        <mxCell id="abGJqm0oXjYPMEmCcIpT-16" style="edgeStyle=orthogonalEdgeStyle;rounded=0;orthogonalLoop=1;jettySize=auto;html=1;entryX=1;entryY=0.5;entryDx=0;entryDy=0;" edge="1" parent="1">
          <mxGeometry relative="1" as="geometry">
            <mxPoint x="740" y="500" as="sourcePoint" />
            <mxPoint x="650" y="500" as="targetPoint" />
          </mxGeometry>
        </mxCell>
        <mxCell id="abGJqm0oXjYPMEmCcIpT-7" value="" style="shape=image;verticalLabelPosition=bottom;labelBackgroundColor=default;verticalAlign=top;aspect=fixed;imageAspect=0;image=data:image/png,iVBORw0KGgoAAAANSUhEUgAAAJIAAACfCAYAAAAS5YBQAAAAAXNSR0IArs4c6QAAAARnQU1BAACxjwv8YQUAAAAJcEhZcwAADsMAAA7DAcdvqGQAABf8SURBVHhe7Z1tbFxVesf/9tjxS2zHseM4TQghGYedDQV2A0jEQAEldpGSOGWl7SJeVtpFtbdV+sUVzodVCwj1Q4waqVKWrd0uW0Gh0FZbYmKptZNms2yNtMumvGjDkHgSkuCAY+L4fd49fZ5zz505c+d95jrEzPnByb3n3Dt3xvf87/M898555iBCjI2N8SIjMzMzci09xbafPn+RSAk3zs7Oora2Fpr80OePYDXpKyo52e6nz18kUir1pNEUhBaSxha0kDS2UML+7fLly1i/fr1sSo3H48HJkydRXVOHyooKlDlK5BbNcicUjmDB54V3bg579+7B2rVr5ZZEkt1cZC2kV155FXWrViG4og4L5bR0VCFcwgZNi2n5E4EjsojysBfVwWmUBWYwOz2N73//Kbk9nmRCysq1/dPPXkZdQyMma7dgsmoDfGU1JCIHbdEi+npQIvqT+5X791rtZtStbsTPXn5Zbs9MRiG98soraFzbjImVWxAsrZCtmq8zwdJKTNRsRmPTOrz66quyNT1phTQ+Pk7urB7XVm7CorBAmmJhsaSM+n0jautW4cqVK7I1NWmfbL/++utouPkbwtxZ+dnfBOVadjSsW4H7931KLrIJFVXVslVzo9Pg/QyTF8/g8ccfly3JSRtsv/Fv/wF/g1P4Tivv/GIlSsmelZTIOCliLETYxOtyuRiJgP5HTb0D0zM/xW333I+mDZt4T80yoCo8hxVXR/HYn35XtuRx1/bWkQF8WbeVArEy2RLjD9ZuRsc2o32RhBJeNJcRsR6i9VCYCtUDIeDEJwv4l0N/iXv/+FFsbPmmeJ3mxqc0EkLTzFn8yb4O2ZLHXVuZo1TenSVCCsTsQgi//3QGH56bhvvSLMav+fDRp9P44NwUvpj046PzU3h/dAqB4CLCQVJTOi6/iZcevhU/+vGbmJBNdvFxHx2Xjv2L92RDkeGbuYrxj3+TtvA+yeDYmHWQicx7pLjFZ5cVpuIjkSz4QvD6w/AHI7RcxDwVP7XzcsEbwKzXi2AgIF+pud5UrKSA+cz/Yez9XyUtVz45hfLqOrm3lewe8WQhpOQshsPChQVDJBryYwGyOIFwRIjJT76M2/yBRWoPwOcPIRzKLTjX2EeJowzrb79P1hJZf+cDcJSVy1p+5C2kMKnIjIdETMRFxkS8DIp1pZ3/yYpf4t/ZxYny53jnsmzGRbzzY7Pduo1470VlG5W+/5UbLJgulMpLRy/Kxq8/jZtvQ3VDs6zFqF69Fo23bJO1/MnfIoXIyrCIZKDNogqSqzPExEVdN/bPipEtePjEGfzDay/gDhzHaz8xYqaP+3bhtZGdeOI12nbiGJ5opW1PSDGxOJ75R+Cxn9M22v7in9Et5w+SiInE+JO/xoe0dsdfHcNf7LnZaC4G6O56w7cfkpUYos288y6AAlxbSFgdo4SFi2OtBFg8pKwA12nJXwYGqYSzFVLrzVjDy/U7cHsrLUd+Cfd7b+LEG7ztIbjEzeXNcO3YScvj+OjURXz8tiGO9ruk+b67Fe28fGMEH4sGg6FnWIy00voCvltMIpLUrt2I+ptaZA2o37gVtc32nIe8hRQiBVE8DS/FQwG/n+KgALw+n1gPBPzwemk96Kf9WHAsJFKYjTSt2yKWH45dEst4NqKJRYhz+FJ1fyY334QmuVpssAUqKXVQKaXY6I9ka+GU8jMBhpfWkg6OebhUOMIodyzCUUp1CqzLaFnuILcm1hdRVl4qXF+ErJadTHxxTizv2LBRLOO5hAm2PNiCNcrjsfYXfy4t1Q+K9lFARU09mrZ+C023bkdl7WrZmhmrLtQ6l1LzwRIvrSUdoWAQ5SSSdWtqqNRhzepaVFVVYu2aWqxtrEX1yipar6Oyiu4aViCySGrKBXJnwg099iQeuPt7ePgxWmc3JyzMRbjfPU7Lnbh9+8345l6Op8h1/U7GRO+NYIiXj7Ui/tHnffgOx0/E0DMvxrm9YmLdH+7AutvulbXssOpCrXNJ+2T76NGjGKv5hqzFc+3zRdRUO+juLUzx0iInEZBYyPLQcpFWjHoJ6F+xv3fBj5FjL6V+ss0B8xNGrBOFYpkX/vZ70g3xXZuMcQQceP8UD5gfm+/aOOA24cC7y4iZ+IHk31OM1f7iGXznbuU4yj6a1GyY+wR79uyRtTy+IkknpImxC/j9b38tltnC37Hp79qWH0sqJL93ATOTE/DRMlsqq6r1t//LkCUVkqZ4yEZIed/+azQqWkgaW9BC0thCxhhJo2EyBtvpxmwfOnQIzz77rKxpipXnn38e3d3dspacvJ9sa4oLqy7UOhcdI2lsQQtJYwsFCSkwNYTgtaNYXNTDaIudvIUUuPrPWLz2MsLTLyP4+d/BO3+VBJXjN/yarw15CSk09ztEvEfhcHwOR1kEJV/2Yebyv8Lr9co9smD4AEr29cMjq5rlTV5CCs9/CEd1DUpXlKEkHEAZ/Tf/xVuYmZlJtEo5CsbTv09k73LZ18+v8qB/H9cPYNjYJXrMIWXfuKIFet3JS0hlNXchODdOigqgZP4c/AEvxqZd8Pv9YhxSHG0HETnSCaesZsLZeQSjfR1AzxCOdMZe1dHhxmEhrBi8L79fJDIK4yW8TiWH99PYQ15Ccqy8A4HALTyKjdzcND6basJCWRsqKyuFRYgjziKZ1oVKe69oyRbX/v1wdfXHrJLmhiLvMduOqruAEgdZIz8u+R7FTRtbUFdXh1L+ZYkUePq70eUaMqzGUI9szZY2dPa5cUwr6SvBqgu1ziXvJ9tlZWUkJF6jmGhlq/jNQbZIqfHg+OAAena1yXruOHfuhvuwjn++Cqy6UOtc8nJtKiUICQGtWLEirTWyBWcn9ru60H9M1jU3DHn3fNnKbyHom4W3ZD3KyyuyEJETm11Ar/RNnvNuscyVts4+uHtzi680S0/+QqohIa14HAu1P0J9fb3h6jLQdnAIPb3tItjuHpSNFvj2v6VrgBTXLm//LbBVyjW80iw9FPimnEvjueeek2vJ8fl8kcnJSR6GEgmFQrJV83XDqgPb5yKpqKjA6tWrUVNTA4dD/1hpMbPE0bGmWNBC0tiCFpLGFvJ+sq0pLqy6UOtc9JhtTVZYdaHWuWjXprEFLSSNLWghaWxBC0ljC1pIGlvQQtLYQkFCmvf78euzZzHn8+lUpCInbyHNknh+c+ECFiIR/MrjwZdTU+KHSe1m+ICZTaIR8Bj4kn240U5JKf+kDcNLa0kFi+i3JCL+9v/+lhYxOvLEuXOYsENMnn7sU1OPbMNIPDhgObBVqFyPS31SExZkiT+Gdbvs5CRpWNb3MlKvLKIQQlGOF3eMYRxod6Nv9AhEgo1l3+jnEudQOYYNwlN1wU+y1TqXUvN3kXhpLckwRVRVWYl7Nm1CdWkpHnA6UV1Xh+Hz5+0R05LgxM7dHdERmgbDONbbgd07zeQlrvegp6c3Ickgmuo01IPedlNoLKKWWEKD2O7C4PFseo3HsNNxe5C4f0cfRsXxRtGHLnRLFXj6D6O3Z78hIq6fB4kq2ediejBkfqaIFF4BqLrgJ9lqnUvOru0diokcZInuJhGZEzNVkJh2kWVaKC/HSXJzCwvqL91arljzsom7YulKE1cN7dvdhQH0ol3dV7nCVGugJlNG28VxD+AAvycdX4WTBzp6j8VO9vAx9HbsRkxHVO/ZhYO7qFNSpau07aIucuM8f3DPcQwOUIcdVBIa2g7G5eOlhF+L3ejs3M1KUqyOiiH+AY8xy8E5T3zyhLPzYEwgW5yIzfF4/clZSPwCfyiUEFyzpSql4HtuchJzc3OylXGi84i8Mkb7qCMPpzGztO8h2se8mmQHDbidOER1TpzsNbNISDAtXS5jPzquu10x3wNuOA9R+5FO2SBx7sTuDikCYvhYL3r2x5IpRZ07ijtFFZyKIj4PmZSBDieMWVGSMNCFFil0LmoqH7+WTCGczs1wDQwiuRFTM288OO/ugDPFm4nPQhdBTGbyYqRyPWLMnIV0H7kxL/nI/yHr4ZViukIW6L9Pn4affOVt9fUJiQBRy9HC1iZ3OviE09LJ2QMSkTxgnjghkAHIC5dfELMycfAVbroSw43FLnDDzYmOEseLd2+97VIQh50YzTaTN+qijBJL5TME4trMR2nDrp6BePcWFWALPPsjMK6nc/AMuCBeYsW8qEzL6OzEEfN96SJDV3fBMVImchbSSoqNdpBbm56exn+RmC6Q9RkiEU199hnubGzEunXrhA+NolqOyBDZmq8Wdm/ClUg3FtMR1UnmXS1GB4r8A0VJRoxEn1+xHkLYAx7q4hwRLjEmTrZUA6p7kwIUFjj6GbbAqVjTKOz220Hn96BijRTY4tHfFb3IlojcXRtZm8ZVq/DQ5s2YJTGdOHMG8+Pj+PaaNdi4caNIlKyqqpJ7S0zzLzpLwewEa3sWiE403Y/omNRmPw62NhSddB+WbkzCbq2jbzRqPQw3bHVvbTg4Sq9ukUFtWyf6yHK1q4EbXTiZXInhhpQA3SJQE/5tgyGY2TSczmURBMeDLR7st4jI038gZoHEuVUt79KQs5AYHujfRC6sncS0hq6oe2+6KU5EfJVF4ZNNdx7CVB/jewmJ2QnWdulW4oLtZFBQO9rnNvYjl+kayvbOxHBvAxQkW91a7O6NSOLeBOw2hkDvyzEZx390Z+U2UqxEIeuwP+0HSZZxnMS9SdoOjmL3YIs4F1uc8XedLH41FuLCp4yMkLSs/HlIRkNSaGy9zBucVOv5QldE3ulInII0Pz8fITcX8Xq9EQrA5RbN0jAU6UFHhG75rytLno7Elqm6ulr8eETSXyLR2Ay51iEXWZvCHzDajR6zvdzg35uy4QFjrlh1oda56DHbmqyw6kKtcynItWk0JlpIGlvQQtLYghaSxha0kDS2oIWksQUtJI0taCFpbEE/2dZkhVUXap1LQU+2dTpS8WDVhVrnkrdru17pSMUNj2W3eagsj2FagiydvIS0pOlINiGG91rHM/FJVMbdJEsHMtKRYsXaiWrCQXS7SE6I75zE9zdEEdcmXhc7lrWDhw+0w903aiQTWPaNfS55XKUYb5Ginb/05fFU1nNTIDkLabmkIyVkjBBiFKQc/009kzIdKDpS0jLemcURGzZsjGx0pcwAsSCG9vagJ2HUZSxtaKhHGW1Jwjnc2xMbJHfOA5eZEpUwDrsjlpZEJZbUkqKdBxW60yVh5E7OQso5HUlerQfMKz3BIphXjLwarfvTiY3tp16x6hWXZHxOwghHyyjIbNKBxDHM4a1yZKM52lDQhoNZJgIYGSoHsStJzpxJ2y5Stfu88VlIOHFZIWRJokIQ47ALQU2CsIechcQvyC0diekFdvFVwWOTu9AvTySPSTauFp5vrVeZj03uL8ZNt6Mbh8R+fMWa+7DZp0tZtIsL1DxoFCMnzB3LPYpPLswmHUjmrYlRsRnHhccPeRWzF0SJZaxYh8uqqBaTs2Q6Ur0Z/y1xmTJm0gKVOJeVqp216Irmy9lBzkLKJx2JzbcxRJkzIUSDQdTvG1kbMeT+4sqzjKUWcMdQ18ksDNFp5pWsEM0YoXXDIogPQaRPBxroajFOfpKB9alRM1uNDJAoouONBIhElxsT4GGnjIcIToY0Pp8FPmectn3ItIRkFaPva0zRYWgmVfvSkLOQck5HSgm5JjFo3/hjc56+zeL/k84aKTNGjntiFkGQIR3IiJEMKxk1HgWk9YhB+maumsjtU92bFCCdAPUzsOWKWtMofM7IIZu5/wkYF2ri61K120furi2fdKSUmK7CsDDZwyeGzHbUnXnQn+DaGBkLdHPOfCzeyC4diDNE+PbGjL944kFyS3H59dSxGbMvjNhMFX18vpqEs2J2D6JFmo0E1yOs92E4rSKiO9GopZHuV1jwVO2StK4zD/J6sp1TOlJKuGPMtBk1HykbjE42Z1oSrjFFbwr3NqCm/+SSDmTmsck0HzHfrkyBEkXkHiVaQpWEeMb4TMlSws08NnFDYkkbF+JXYx4q4hEA7ec2s4DJ2pHPM4SWql0wjH5qSgwZUmPVhVoXbXSF6HSkGxTydhFys7JmI0M9EU4dzhadjrTM4fntXBT42/5km294Yw+bbKEgIWmWGuPOK6ufyckWkc6U7Z1o9mghaWxBC0ljC1pIGlvQQtLYghaSxha0kDS2oMdsa7LCqgu1zkX/GokmK6y6UOtctGvT2IIWksYWChKSTkfSmOQtJJ2OpFHJS0hLko5kSRXKCz6GHKtjFv7mPPVUXSnmSVGwzpZkTUeKlkI/+zInZyEtWToSfyud7dQM6bBM25D6m3NjZqPB3bEfaReDyuLEZAzRVWdLik9YQGzWJDs++zImZyHZlo4U105XfJxFircUZt/GWYMk1iMnhvvRNaDkjRFtnZZf+xeZJxlmS9IIchYSvyD/dCRj/rHY8Gqz3ToFQjftFbMsYgwWCa97cLds42G2KRL8LDMSpdKbmBTHOrORGOBvmT2Jh+Smmy1JI8j5yXZh6Ug8n4aazaBkdkSRY6otY6HFmOWoSNrBE9AkzeiwuLb8BwIag/bF+PhU00kUEVZdqHUuOT/Zti8dKQ/iMj8KEQkbnyQzG3nOkz2SU1mxW4sOtk+cLanYsOpCrXPJ3bUVlI5kpB0lTfyLYlit6AR/EmM2JMWdUYxT0FDmhJmN5OyVMm1JZL1mnC1JY5KzkJjc05HMbFJySWRVMlkSnhEoOqMSFdHXnPcVTV+i0j5o7Jwl0exZUfh23jqzkZybVnw4w63Fpeto95YeutqWNh1ptC/SgZ5I9skvmhsNnY6kuW4UJKSsEPOr2p/+ormxWHohaYoCLSSNLWghaWyhhCNwfjJpPmhSOXnypFzTFDsPPvigXEtOCd+6Xb58GevXr5dNMY4ePYqGhgZZ0xQrk5OT2LNnj6wZX49YDY92bRpb0ELS2IIWksYWtJA0tvCVCKmy2YXW1la0bqqXLZqlhIPlYDAoa0tDXkKKCsEsrmZUym2aG4+LFy/irbfewpkzZ8SQmKUgLyH5xt0YOT1mVMZOY8Q9Dp9R09yg8Dj6d999F4ODgxgfH5et9pH/c6T6TWjdtsEQ0oUpbsCm1m2gFoVJeE65Mc4qM/dXMV9b2QzXdiei7zTpwSm3H83yeGOnR3BhqhLNru1w0k5G3fp+Yzg9cgFTZBvN/UyM/WWlCHn//ffxwQcfyJoB9/c999yD+vrM4UVWz5G4keGlteQHi2dEWqwGOJv5g1KnCxFxZ4/glGeSd5TQNhYRi4e2idc1OHFLsw8XRk7TK4AN2zZh0yZVRCwWFpFxvJFTHnrXDdhGMVdl8y3R/UZ4G5ViFlEq2Hi8/fbbwkr5fJn9iVUXap3L9fk1kvpVhuUYmyaLYcHcRuLZzvGWtFoNlRx1TeGCFMkGap70nDJEUbkKq4XFIfHwa0xrVlURjdU2bDPiNx3P24NVF2qdy41z+89uTloQUZKYEUNcCqYVMwvFalMUv6kWjwXlata3AlbYte3duxc7duwQgxIL5foIiUyn6FrFYkSZmhbuCxvWIbG/pdujPcYMH2dYGN80rvEByYoJz2lB3AyQsOJdqIZpbGzEI488gra2tqzio2zJK9jm2//tajQbFxzLALsyPhhPeA2TJlCf9JyD17kldjyfNdhODKr5eKexDXExffQ9ihcOts+ePYs777wTW7duzXlIdDbBtv72vwhgIXDHl5ebSfa5ob/91wjYGOQromzRQtLYghaSxha0kDS2UMJZtnI9gVOnTulgWyOC7e3bt8tacvRdmyYjttz+azRMQUL6zyMDuFp3K8IlDtmiKTYckRAaZ87i0X0dsiWP50g+vx/lYa+saYoR7n/WQSbSCmmBlFcdnJY1TTGykvp/YXZG1lKTVkh79+5BWWAG5Yt6/GMxUh72wRGYRUdHzK2lIq2Q+BfY5mam0TB/CaXkKzXFA/d3w8IlzJM1ampqkq2pyfhA8qmnnsLViS/QNHceK7RlKgrYEnF/X73yOZ588knZmp6MQmKe/uEPMTs1idWz59Hg/QxV4TlpoZYmI0FzvYmI/qwMzYr+bSARzU1P4umnn5bbM5P210isTExMYHh4GHX1DaiqrECZIysdapYBofAivHR3NnNtEu3t7VizZo3ckiX8HCnVj5FaSfYjlMkotv30+Svwx0g1GhMtJI0taCFpbEELSWMLWkgaW9BC0tgA8P+G4irP7S7NCQAAAABJRU5ErkJggg==;" vertex="1" parent="1">
          <mxGeometry x="740" y="395.5" width="146" height="159" as="geometry" />
        </mxCell>
        <mxCell id="abGJqm0oXjYPMEmCcIpT-18" value="Java Class" style="text;html=1;align=center;verticalAlign=middle;resizable=0;points=[];autosize=1;strokeColor=none;fillColor=none;fontSize=16;fontStyle=1" vertex="1" parent="1">
          <mxGeometry x="280" y="370" width="100" height="30" as="geometry" />
        </mxCell>
        <mxCell id="abGJqm0oXjYPMEmCcIpT-19" value="Database Table" style="text;html=1;align=center;verticalAlign=middle;resizable=0;points=[];autosize=1;strokeColor=none;fillColor=none;fontSize=16;fontStyle=1" vertex="1" parent="1">
          <mxGeometry x="748" y="370" width="130" height="30" as="geometry" />
        </mxCell>
      </root>
    </mxGraphModel>
  </diagram>
</mxfile>
